<?xml version="1.0" standalone="no"?><!DOCTYPE svg PUBLIC "-//W3C//DTD SVG 1.1//EN" "http://www.w3.org/Graphics/SVG/1.1/DTD/svg11.dtd"><svg t="1679564090696" class="icon" viewBox="0 0 1024 1024" version="1.1" xmlns="http://www.w3.org/2000/svg" p-id="890" xmlns:xlink="http://www.w3.org/1999/xlink" width="200" height="200"><path d="M553.472 670.208h-81.408c-16.896 0-30.72 13.824-30.72 30.72V954.88c0 3.584-0.768 7.168-1.792 10.496H586.24c-1.28-3.328-1.792-6.656-1.792-10.496v-253.952c-0.256-16.896-14.08-30.72-30.976-30.72z" fill="#1afa29" p-id="891"></path><path d="M960.256 416.512l-0.512-0.512-346.624-307.2c-57.088-52.48-145.92-51.968-202.496 1.28L66.816 417.024c-0.256 0.256-0.512 0.512-0.768 0.512-18.432 17.408-24.32 43.776-15.36 67.328 9.216 24.32 33.536 39.936 59.648 39.936H171.52v348.416c0 50.944 41.216 92.16 92.16 92.16h117.76c-1.28-3.328-1.792-6.656-1.792-10.496v-253.952c0-50.944 41.216-92.16 92.16-92.16h81.408c50.944 0 92.16 41.216 92.16 92.16V954.88c0 3.584-0.768 7.168-1.792 10.496h120.576c50.944 0 92.16-41.216 92.16-92.16V524.288H916.48c26.368 0 50.432-15.872 59.648-40.448 8.96-23.808 2.816-50.176-15.872-67.328z" fill="#1afa29" p-id="892"></path></svg>