<?xml version="1.0" standalone="no"?><!DOCTYPE svg PUBLIC "-//W3C//DTD SVG 1.1//EN" "http://www.w3.org/Graphics/SVG/1.1/DTD/svg11.dtd"><svg t="1679639797477" class="icon" viewBox="0 0 1024 1024" version="1.1" xmlns="http://www.w3.org/2000/svg" p-id="7620" xmlns:xlink="http://www.w3.org/1999/xlink" width="200" height="200"><path d="M512 512m-204.8 0a204.8 204.8 0 1 0 409.6 0 204.8 204.8 0 1 0-409.6 0Z" fill="#5459F6" p-id="7621"></path><path d="M512 307.2c113.10592 0 204.8 91.69408 204.8 204.8s-91.69408 204.8-204.8 204.8-204.8-91.69408-204.8-204.8 91.69408-204.8 204.8-204.8z m0 30.72c-96.14336 0-174.08 77.93664-174.08 174.08s77.93664 174.08 174.08 174.08 174.08-77.93664 174.08-174.08-77.93664-174.08-174.08-174.08z" fill="#000000" p-id="7622"></path><path d="M512 209.92c166.8352 0 302.08 135.2448 302.08 302.08s-135.2448 302.08-302.08 302.08-302.08-135.2448-302.08-302.08 135.2448-302.08 302.08-302.08z m0 30.72c-149.86752 0-271.36 121.49248-271.36 271.36s121.49248 271.36 271.36 271.36 271.36-121.49248 271.36-271.36-121.49248-271.36-271.36-271.36z" fill="#000000" p-id="7623"></path><path d="M512 30.72c265.8048 0 481.28 215.4752 481.28 481.28s-215.4752 481.28-481.28 481.28-481.28-215.4752-481.28-481.28S246.1952 30.72 512 30.72z m0 30.72c-248.83712 0-450.56 201.72288-450.56 450.56s201.72288 450.56 450.56 450.56 450.56-201.72288 450.56-450.56-201.72288-450.56-450.56-450.56z" fill="#000000" p-id="7624"></path><path d="M839.68 184.32m-87.04 0a87.04 87.04 0 1 0 174.08 0 87.04 87.04 0 1 0-174.08 0Z" fill="#5459F6" p-id="7625"></path><path d="M839.68 97.28c48.07168 0 87.04 38.96832 87.04 87.04s-38.96832 87.04-87.04 87.04-87.04-38.96832-87.04-87.04 38.96832-87.04 87.04-87.04z m0 15.36c-39.58784 0-71.68 32.09216-71.68 71.68s32.09216 71.68 71.68 71.68 71.68-32.09216 71.68-71.68-32.09216-71.68-71.68-71.68z" fill="#000000" p-id="7626"></path><path d="M122.88 184.32m-87.04 0a87.04 87.04 0 1 0 174.08 0 87.04 87.04 0 1 0-174.08 0Z" fill="#5459F6" p-id="7627"></path><path d="M122.88 97.28c48.07168 0 87.04 38.96832 87.04 87.04s-38.96832 87.04-87.04 87.04S35.84 232.39168 35.84 184.32s38.96832-87.04 87.04-87.04z m0 15.36c-39.58784 0-71.68 32.09216-71.68 71.68s32.09216 71.68 71.68 71.68 71.68-32.09216 71.68-71.68-32.09216-71.68-71.68-71.68z" fill="#000000" p-id="7628"></path><path d="M240.64 404.48m-46.08 0a46.08 46.08 0 1 0 92.16 0 46.08 46.08 0 1 0-92.16 0Z" fill="#5459F6" p-id="7629"></path><path d="M240.64 358.4a46.08 46.08 0 1 1 0 92.16 46.08 46.08 0 0 1 0-92.16z m0 15.36a30.72 30.72 0 1 0 0 61.44 30.72 30.72 0 0 0 0-61.44z" fill="#000000" p-id="7630"></path><path d="M775.68 642.56m-38.4 0a38.4 38.4 0 1 0 76.8 0 38.4 38.4 0 1 0-76.8 0Z" fill="#5459F6" p-id="7631"></path><path d="M775.68 604.16a38.4 38.4 0 1 1 0 76.8 38.4 38.4 0 0 1 0-76.8z m0 15.36a23.04 23.04 0 1 0 0 46.08 23.04 23.04 0 0 0 0-46.08z" fill="#000000" p-id="7632"></path><path d="M314.88 919.04m-104.96 0a104.96 104.96 0 1 0 209.92 0 104.96 104.96 0 1 0-209.92 0Z" fill="#5459F6" p-id="7633"></path><path d="M314.88 814.08c57.96864 0 104.96 46.99136 104.96 104.96S372.84864 1024 314.88 1024 209.92 977.00864 209.92 919.04 256.91136 814.08 314.88 814.08z m0 15.36c-49.4848 0-89.6 40.1152-89.6 89.6S265.3952 1008.64 314.88 1008.64 404.48 968.5248 404.48 919.04 364.3648 829.44 314.88 829.44z" fill="#000000" p-id="7634"></path><path d="M798.72 875.52m-61.44 0a61.44 61.44 0 1 0 122.88 0 61.44 61.44 0 1 0-122.88 0Z" fill="#FFFFFF" p-id="7635"></path><path d="M798.72 814.08c33.93024 0 61.44 27.50976 61.44 61.44s-27.50976 61.44-61.44 61.44-61.44-27.50976-61.44-61.44 27.50976-61.44 61.44-61.44z m0 15.36a46.08 46.08 0 1 0 0 92.16 46.08 46.08 0 0 0 0-92.16z" fill="#000000" p-id="7636"></path><path d="M788.48 450.56m-51.2 0a51.2 51.2 0 1 0 102.4 0 51.2 51.2 0 1 0-102.4 0Z" fill="#FFFFFF" p-id="7637"></path><path d="M788.48 399.36c28.27776 0 51.2 22.92224 51.2 51.2s-22.92224 51.2-51.2 51.2-51.2-22.92224-51.2-51.2 22.92224-51.2 51.2-51.2z m0 15.36a35.84 35.84 0 1 0 0 71.68 35.84 35.84 0 0 0 0-71.68z" fill="#000000" p-id="7638"></path></svg>