<?xml version="1.0" standalone="no"?><!DOCTYPE svg PUBLIC "-//W3C//DTD SVG 1.1//EN" "http://www.w3.org/Graphics/SVG/1.1/DTD/svg11.dtd"><svg t="1679564455612" class="icon" viewBox="0 0 1024 1024" version="1.1" xmlns="http://www.w3.org/2000/svg" p-id="1452" xmlns:xlink="http://www.w3.org/1999/xlink" width="200" height="200"><path d="M39.424 529.92v356.352c0 57.088 46.336 103.424 103.424 103.424h553.216c57.088 0 103.424-46.336 103.424-103.424V529.92H39.424zM696.064 211.2H142.848c-57.088 0-103.424 46.336-103.424 103.424V468.48h759.808v-153.856c0.256-57.088-46.336-103.424-103.168-103.424zM215.04 407.552c-18.688 0-33.792-15.104-33.792-33.792 0-18.688 15.104-33.792 33.792-33.792s33.792 15.104 33.792 33.792c0 18.432-15.104 33.792-33.792 33.792z m430.08-8.192H319.232c-15.616 0-28.16-12.544-28.16-28.16s12.544-28.16 28.16-28.16H645.12c15.616 0 28.16 12.544 28.16 28.16s-12.544 28.16-28.16 28.16z" fill="#1afa29" p-id="1453"></path><path d="M874.752 897.024h-30.72V262.912c0-50.432-40.96-91.392-91.392-91.392H178.432v-16.64c0-57.088 46.08-103.168 103.168-103.168h578.56c63.232 0 114.432 51.2 114.432 114.432v630.784c0 55.296-44.8 100.096-99.84 100.096z" fill="#1afa29" p-id="1454"></path></svg>