<?xml version="1.0" standalone="no"?><!DOCTYPE svg PUBLIC "-//W3C//DTD SVG 1.1//EN" "http://www.w3.org/Graphics/SVG/1.1/DTD/svg11.dtd"><svg t="1679646559276" class="icon" viewBox="0 0 1024 1024" version="1.1" xmlns="http://www.w3.org/2000/svg" p-id="4332" xmlns:xlink="http://www.w3.org/1999/xlink" width="200" height="200"><path d="M907 99.85a18 18 0 0 1 18 18v580a18 18 0 0 1-18 18H117a18 18 0 0 1-18-18v-580a18 18 0 0 1 18-18h790m0-2H117a20.06 20.06 0 0 0-20 20v580a20.06 20.06 0 0 0 20 20h790a20.06 20.06 0 0 0 20-20v-580a20.06 20.06 0 0 0-20-20z" fill="#d4237a" p-id="4333"></path><path d="M907 98.85H117a19 19 0 0 0-19 19v580a19 19 0 0 0 19 19h790a19 19 0 0 0 19-19v-580a19 19 0 0 0-19-19z m-10 575a14 14 0 0 1-14 14H141a14 14 0 0 1-14-14v-532a14 14 0 0 1 14-14h742a14 14 0 0 1 14 14z" fill="#d4237a" p-id="4334"></path><path d="M256.7 877.15l509.95 0 0 48-509.95 0 0-48Z" fill="#d4237a" p-id="4335"></path><path d="M742.77 878.15A22.9 22.9 0 0 1 765.65 901v0.24a22.9 22.9 0 0 1-22.88 22.88H280.58a22.9 22.9 0 0 1-22.88-22.88V901a22.9 22.9 0 0 1 22.88-22.88h462.19m0-2H280.58A25 25 0 0 0 255.7 901v0.24a25 25 0 0 0 24.88 24.88h462.19a25 25 0 0 0 24.88-24.88V901a25 25 0 0 0-24.88-24.88z" fill="#d4237a" p-id="4336"></path><path d="M791.5 701.16m-130 0a130 130 0 1 0 260 0 130 130 0 1 0-260 0Z" fill="#d4237a" p-id="4337"></path><path d="M691.6 707h-6.42v10.95a5.52 5.52 0 0 1-1 3.56 3.24 3.24 0 0 1-5 0 5.52 5.52 0 0 1-1-3.52v-29.83a5.24 5.24 0 0 1 1.06-3.69 4.49 4.49 0 0 1 3.37-1.11h9a21.2 21.2 0 0 1 6.13 0.69 8.89 8.89 0 0 1 3.67 2.19 10 10 0 0 1 2.35 3.75 14.6 14.6 0 0 1 0.8 5q0 5.91-3.25 9T691.6 707z m-1.7-17.73h-4.72v11.82h4.72a12.68 12.68 0 0 0 4.14-0.58 4.84 4.84 0 0 0 2.54-1.9 6.16 6.16 0 0 0 0.87-3.46 6.29 6.29 0 0 0-1.35-4.15q-1.51-1.75-6.2-1.75zM719.81 705.5h-2.45v12.43a5.59 5.59 0 0 1-1 3.61 3.13 3.13 0 0 1-2.52 1.16 3.07 3.07 0 0 1-2.59-1.21 5.83 5.83 0 0 1-0.92-3.56v-29.77a5.43 5.43 0 0 1 1-3.67 4.2 4.2 0 0 1 3.28-1.13H726a31.15 31.15 0 0 1 4 0.22 9.31 9.31 0 0 1 3 0.91 8.77 8.77 0 0 1 2.88 2.19 9.78 9.78 0 0 1 1.9 3.31 12.2 12.2 0 0 1 0.65 4 10.37 10.37 0 0 1-2.18 6.91 12.11 12.11 0 0 1-6.62 3.67 13.23 13.23 0 0 1 3.56 3.27 33.24 33.24 0 0 1 3 4.6 35.78 35.78 0 0 1 2.08 4.41 9.5 9.5 0 0 1 0.74 2.71 3 3 0 0 1-0.44 1.52 3.21 3.21 0 0 1-1.19 1.19 3.43 3.43 0 0 1-1.75 0.44 3.14 3.14 0 0 1-2-0.62 5.71 5.71 0 0 1-1.38-1.57q-0.58-1-1.57-2.8l-2.68-5.23a29.1 29.1 0 0 0-2.7-4.38 6.8 6.8 0 0 0-2.42-2.06 7.52 7.52 0 0 0-3.07-0.55z m4-16.25h-6.46v10.63h6.27a15.83 15.83 0 0 0 4.25-0.49 4.89 4.89 0 0 0 2.63-1.66 5.16 5.16 0 0 0 0.91-3.23 5.43 5.43 0 0 0-0.73-2.84 4.56 4.56 0 0 0-2-1.83 13.15 13.15 0 0 0-4.86-0.58zM760.36 682.7a16.91 16.91 0 0 1 9.24 2.44 15.24 15.24 0 0 1 5.84 6.94 26 26 0 0 1 2 10.57 28.69 28.69 0 0 1-1.09 8.15 18.25 18.25 0 0 1-3.25 6.36 14.31 14.31 0 0 1-5.33 4.12 18.94 18.94 0 0 1-14.51 0 14.5 14.5 0 0 1-5.36-4.13 18.29 18.29 0 0 1-3.24-6.41 28.73 28.73 0 0 1-1.1-8.1 27.71 27.71 0 0 1 1.14-8.18 18.08 18.08 0 0 1 3.31-6.33 14.38 14.38 0 0 1 5.28-4 17.24 17.24 0 0 1 7.07-1.43z m10 19.89a20.06 20.06 0 0 0-1.23-7.36 10.05 10.05 0 0 0-3.5-4.71 8.88 8.88 0 0 0-5.23-1.6 8.5 8.5 0 0 0-6.95 3.46 12.82 12.82 0 0 0-2 4.31 21.65 21.65 0 0 0-0.74 5.9 22.18 22.18 0 0 0 0.74 6 12.74 12.74 0 0 0 2.1 4.42 9 9 0 0 0 3.11 2.63 8.56 8.56 0 0 0 3.86 0.87 8.71 8.71 0 0 0 4.94-1.5 10.14 10.14 0 0 0 3.59-4.64 19.81 19.81 0 0 0 1.26-7.77zM803.5 687.45v20.26a42.45 42.45 0 0 1-0.2 4.49 15.53 15.53 0 0 1-0.91 3.75 9.86 9.86 0 0 1-3.89 5 11.78 11.78 0 0 1-6.61 1.78 12.45 12.45 0 0 1-5.86-1.24 9.08 9.08 0 0 1-3.79-4A15.66 15.66 0 0 1 781 714a15.44 15.44 0 0 1-0.47-3.67 4 4 0 0 1 0.92-2.82 3.1 3.1 0 0 1 2.36-1 2.51 2.51 0 0 1 2.1 0.9 6.67 6.67 0 0 1 1.08 2.8 28 28 0 0 0 0.8 3.25 4.87 4.87 0 0 0 1.34 2.09 3.82 3.82 0 0 0 2.69 0.87q4.65 0 4.65-7.63v-21.4a5.7 5.7 0 0 1 0.93-3.56 3.05 3.05 0 0 1 2.6-1.13 3.14 3.14 0 0 1 2.58 1.19 5.6 5.6 0 0 1 0.92 3.56zM833.89 689.41h-15.78v9.5h14.53a3.22 3.22 0 0 1 2.39 0.8 2.9 2.9 0 0 1 0.79 2.12A3 3 0 0 1 835 704a3.15 3.15 0 0 1-2.41 0.83h-14.48v11h16.32a3.33 3.33 0 0 1 2.49 0.86 3.13 3.13 0 0 1 0.84 2.28 3.06 3.06 0 0 1-0.84 2.23 3.33 3.33 0 0 1-2.49 0.86h-19a4.19 4.19 0 0 1-3.29-1.13 5.47 5.47 0 0 1-1-3.67v-29.1a7.2 7.2 0 0 1 0.45-2.76 3 3 0 0 1 1.4-1.56 5.37 5.37 0 0 1 2.44-0.49h18.49a3.34 3.34 0 0 1 2.49 0.83 3 3 0 0 1 0.81 2.18 3 3 0 0 1-0.81 2.2 3.34 3.34 0 0 1-2.52 0.85zM872.79 709.83a11.36 11.36 0 0 1-0.81 4 14.63 14.63 0 0 1-2.56 4.22 13.1 13.1 0 0 1-4.46 3.36 14.56 14.56 0 0 1-6.32 1.29 19.87 19.87 0 0 1-5-0.58 13.16 13.16 0 0 1-4.07-1.81 14.28 14.28 0 0 1-3.36-3.23 19.64 19.64 0 0 1-2.33-4.08 23 23 0 0 1-1.45-4.82 29.23 29.23 0 0 1-0.48-5.44 26.7 26.7 0 0 1 1.21-8.36 18.29 18.29 0 0 1 3.48-6.32 15.21 15.21 0 0 1 5.31-4 15.61 15.61 0 0 1 6.49-1.37 14.81 14.81 0 0 1 7.48 1.87 14 14 0 0 1 5 4.63 9.83 9.83 0 0 1 1.75 5.21 3.62 3.62 0 0 1-0.85 2.37 2.57 2.57 0 0 1-2.05 1 2.65 2.65 0 0 1-2-0.71 10 10 0 0 1-1.5-2.45 11.57 11.57 0 0 0-3.22-4.3 7.27 7.27 0 0 0-4.56-1.42 8 8 0 0 0-6.88 3.67q-2.56 3.67-2.56 10.42a21.43 21.43 0 0 0 1.13 7.51 9.35 9.35 0 0 0 3.22 4.51 8.16 8.16 0 0 0 4.86 1.48 7.9 7.9 0 0 0 5.11-1.68 10.14 10.14 0 0 0 3.15-4.92 8.78 8.78 0 0 1 1.11-2.49 2.39 2.39 0 0 1 2.12-1 2.82 2.82 0 0 1 2.15 1 3.46 3.46 0 0 1 0.89 2.44zM901.54 689.83h-7.64v28.1a5.59 5.59 0 0 1-1 3.6 3.09 3.09 0 0 1-2.5 1.17 3.13 3.13 0 0 1-2.54-1.19 5.55 5.55 0 0 1-1-3.59v-28.1h-7.64a3.6 3.6 0 0 1-2.67-0.88 3.18 3.18 0 0 1-0.87-2.34 3.14 3.14 0 0 1 0.91-2.37 3.66 3.66 0 0 1 2.63-0.87h22.27a3.64 3.64 0 0 1 2.7 0.9 3.2 3.2 0 0 1 0.88 2.35 3.13 3.13 0 0 1-0.9 2.34 3.68 3.68 0 0 1-2.63 0.88z" fill="#d4237a" p-id="4338"></path><path d="M244.34 180.3a4.35 4.35 0 0 1 1.61 0.29l27.4 10.41a4.38 4.38 0 0 1 2.53 5.64l-40.59 106.51a4.37 4.37 0 0 1-5.64 2.53l-27.41-10.45a4.37 4.37 0 0 1-2.53-5.64l40.59-106.48a4.35 4.35 0 0 1 4-2.82m0-2.12a6.49 6.49 0 0 0-6 4.18l-40.56 106.49a6.49 6.49 0 0 0 3.75 8.37l27.41 10.45a6.48 6.48 0 0 0 8.37-3.75l40.59-106.48a6.49 6.49 0 0 0-3.75-8.37l-27.41-10.45a6.47 6.47 0 0 0-2.39-0.43z" fill="#d4237a" p-id="4339"></path><path d="M241.401051 201.505141l21.079864 8.036973-1.172059 3.074146-21.079864-8.036972 1.172059-3.074147Z" fill="#d4237a" p-id="4340"></path><path d="M238.218491 209.845038l21.079864 8.036973-1.172058 3.074146-21.079864-8.036973 1.172058-3.074146Z" fill="#d4237a" p-id="4341"></path><path d="M235.042316 218.194269l21.079864 8.036973-1.172058 3.074147-21.079864-8.036973 1.172058-3.074147Z" fill="#d4237a" p-id="4342"></path><path d="M285.48 184.08h0.11l23.41 0.35a3.81 3.81 0 0 1 3.75 3.86L311 303.37a3.79 3.79 0 0 1-3.76 3.75h-0.11l-23.41-0.35a3.81 3.81 0 0 1-3.72-3.87l1.74-115.07a3.79 3.79 0 0 1 3.76-3.75m0-2.12a5.92 5.92 0 0 0-5.85 5.83l-1.74 115.07a5.92 5.92 0 0 0 5.83 6l23.41 0.35h0.17a5.92 5.92 0 0 0 5.85-5.83l1.74-115.07a5.92 5.92 0 0 0-5.83-6l-23.46-0.31z" fill="#d4237a" p-id="4343"></path><path d="M290.451613 203.746481l13.048495 0.198149-0.049954 3.289621-13.048496-0.198149 0.049955-3.289621Z" fill="#d4237a" p-id="4344"></path><path d="M290.326039 212.673478l13.048496 0.198148-0.049955 3.289621-13.048496-0.198148 0.049955-3.289621Z" fill="#d4237a" p-id="4345"></path><path d="M290.18046 221.610314l13.048495 0.198149-0.049954 3.28962-13.048496-0.198148 0.049955-3.289621Z" fill="#d4237a" p-id="4346"></path><path d="M320.73 184.62h0.11l23.41 0.35a3.81 3.81 0 0 1 3.75 3.86l-1.75 115.07a3.79 3.79 0 0 1-3.76 3.75h-0.11L319 307.3a3.81 3.81 0 0 1-3.75-3.87L317 188.37a3.79 3.79 0 0 1 3.76-3.75m0-2.12a5.92 5.92 0 0 0-5.85 5.83l-1.79 115.07a5.92 5.92 0 0 0 5.83 6l23.41 0.35h0.17a5.92 5.92 0 0 0 5.85-5.83l1.74-115.07a5.92 5.92 0 0 0-5.83-6l-23.41-0.35z" fill="#d4237a" p-id="4347"></path><path d="M325.719499 204.281795l13.048495 0.198149-0.049954 3.28962-13.048496-0.198148 0.049955-3.289621Z" fill="#d4237a" p-id="4348"></path><path d="M325.573919 213.20864l13.048496 0.198148-0.049955 3.289621-13.048495-0.198148 0.049954-3.289621Z" fill="#d4237a" p-id="4349"></path><path d="M325.448346 222.135637l13.048495 0.198148-0.049954 3.289621-13.048496-0.198149 0.049955-3.28962Z" fill="#d4237a" p-id="4350"></path><path d="M182.357956 307.592992l180.959136 2.747961-0.057546 3.789563-180.959137-2.74796 0.057547-3.789564Z" fill="#d4237a" p-id="4351"></path><path d="M481.18 183a4.35 4.35 0 0 1 1.61 0.29l27.41 10.45a4.37 4.37 0 0 1 2.53 5.64l-40.59 106.46a4.37 4.37 0 0 1-5.64 2.53l-27.41-10.45a4.37 4.37 0 0 1-2.53-5.64l40.58-106.48a4.35 4.35 0 0 1 4-2.82m0-2.12a6.49 6.49 0 0 0-6 4.18l-40.56 106.48a6.49 6.49 0 0 0 3.75 8.37l27.41 10.45a6.48 6.48 0 0 0 8.37-3.75l40.59-106.48a6.49 6.49 0 0 0-3.75-8.37l-27.41-10.45a6.47 6.47 0 0 0-2.39-0.43z" fill="#d4237a" p-id="4352"></path><path d="M478.237339 204.193297l21.079864 8.036973-1.172059 3.074147-21.079864-8.036973 1.172059-3.074147Z" fill="#d4237a" p-id="4353"></path><path d="M473.463305 213.963943l21.033225 8.15825-1.189745 3.067345-21.033225-8.15825 1.189745-3.067345Z" fill="#d4237a" p-id="4354"></path><path d="M471.87897 220.892437l21.079864 8.036973-1.172058 3.074147-21.079864-8.036973 1.172058-3.074147Z" fill="#d4237a" p-id="4355"></path><path d="M522.32 186.77h0.11l23.41 0.35a3.81 3.81 0 0 1 3.75 3.86l-1.74 115.07a3.79 3.79 0 0 1-3.76 3.75H544l-23.41-0.35a3.81 3.81 0 0 1-3.75-3.87l1.74-115.07a3.79 3.79 0 0 1 3.76-3.75m0-2.12a5.92 5.92 0 0 0-5.85 5.83l-1.74 115.07a5.92 5.92 0 0 0 5.83 6l23.41 0.35h0.17a5.92 5.92 0 0 0 5.85-5.83L551.7 191a5.92 5.92 0 0 0-5.83-6l-23.41-0.35z" fill="#d4237a" p-id="4356"></path><path d="M527.303617 206.442456l13.048496 0.198148-0.049955 3.289621-13.048495-0.198149 0.049954-3.28962Z" fill="#d4237a" p-id="4357"></path><path d="M527.168029 215.3693l13.048496 0.198149-0.049955 3.289621-13.048495-0.198149 0.049954-3.289621Z" fill="#d4237a" p-id="4358"></path><path d="M527.032464 224.296297l13.048496 0.198149-0.049955 3.28962-13.048495-0.198148 0.049954-3.289621Z" fill="#d4237a" p-id="4359"></path><path d="M557.58 187.3h0.11l23.41 0.35a3.81 3.81 0 0 1 3.75 3.86l-1.75 115.08a3.79 3.79 0 0 1-3.76 3.75h-0.11l-23.4-0.34a3.81 3.81 0 0 1-3.75-3.86l1.74-115.07a3.79 3.79 0 0 1 3.76-3.75m0-2.12a5.92 5.92 0 0 0-5.88 5.8L550 306.09a5.92 5.92 0 0 0 5.83 6l23.41 0.35h0.17a5.92 5.92 0 0 0 5.85-5.83L587 191.55a5.92 5.92 0 0 0-5.83-6l-23.41-0.35z" fill="#d4237a" p-id="4360"></path><path d="M562.551346 206.97761l13.048495 0.198148-0.049954 3.289621-13.048496-0.198148 0.049955-3.289621Z" fill="#d4237a" p-id="4361"></path><path d="M562.425772 215.914613l13.048496 0.198148-0.049955 3.289621-13.048495-0.198148 0.049954-3.289621Z" fill="#d4237a" p-id="4362"></path><path d="M562.280193 224.841443l13.048496 0.198148-0.049955 3.289621-13.048496-0.198149 0.049955-3.28962Z" fill="#d4237a" p-id="4363"></path><path d="M419.209809 310.288959l180.959136 2.747961-0.057546 3.789563-180.959137-2.747961 0.057547-3.789563Z" fill="#d4237a" p-id="4364"></path><path d="M718 185.63a4.35 4.35 0 0 1 1.61 0.29L747 196.36a4.38 4.38 0 0 1 2.53 5.64L709 308.48a4.37 4.37 0 0 1-5.64 2.53l-27.41-10.45a4.37 4.37 0 0 1-2.53-5.64L714 188.44a4.35 4.35 0 0 1 4-2.82m0-2.12a6.49 6.49 0 0 0-6 4.18l-40.58 106.49a6.49 6.49 0 0 0 3.75 8.37L702.58 313a6.48 6.48 0 0 0 8.37-3.75l40.59-106.48a6.49 6.49 0 0 0-3.75-8.37l-27.41-10.45a6.47 6.47 0 0 0-2.39-0.43z" fill="#d4237a" p-id="4365"></path><path d="M715.083711 206.856994l21.079864 8.036973-1.172058 3.074147-21.079864-8.036973 1.172058-3.074147Z" fill="#d4237a" p-id="4366"></path><path d="M711.892174 215.203341l21.079864 8.036973-1.172059 3.074147-21.079864-8.036973 1.172059-3.074147Z" fill="#d4237a" p-id="4367"></path><path d="M708.715999 223.552572l21.079864 8.036973-1.172059 3.074147-21.079864-8.036973 1.172059-3.074147Z" fill="#d4237a" p-id="4368"></path><path d="M759.17 189.41h0.11l23.41 0.35a3.81 3.81 0 0 1 3.75 3.86l-1.75 115.08a3.79 3.79 0 0 1-3.76 3.75h-0.11l-23.41-0.35a3.81 3.81 0 0 1-3.75-3.86l1.74-115.07a3.79 3.79 0 0 1 3.76-3.75m0-2.12a5.92 5.92 0 0 0-5.85 5.83l-1.76 115.07a5.92 5.92 0 0 0 5.83 6l23.41 0.35h0.21a5.92 5.92 0 0 0 5.85-5.83l1.74-115.07a5.92 5.92 0 0 0-5.83-6l-23.41-0.35z" fill="#d4237a" p-id="4369"></path><path d="M764.146078 209.098275l13.048496 0.198148-0.049955 3.289621-13.048495-0.198148 0.049954-3.289621Z" fill="#d4237a" p-id="4370"></path><path d="M764.010498 218.035263l13.048496 0.198148-0.049955 3.289621-13.048495-0.198148 0.049954-3.289621Z" fill="#d4237a" p-id="4371"></path><path d="M763.874926 226.962108l13.048495 0.198148-0.049954 3.289621-13.048496-0.198148 0.049955-3.289621Z" fill="#d4237a" p-id="4372"></path><path d="M794.42 189.95h0.11l23.41 0.35a3.81 3.81 0 0 1 3.75 3.86l-1.74 115.07a3.79 3.79 0 0 1-3.76 3.75h-0.11l-23.41-0.35a3.81 3.81 0 0 1-3.75-3.86l1.74-115.07a3.79 3.79 0 0 1 3.76-3.75m0-2.12a5.92 5.92 0 0 0-5.85 5.83l-1.77 115.07a5.92 5.92 0 0 0 5.83 6l23.41 0.35h0.17a5.92 5.92 0 0 0 5.85-5.83l1.74-115.05a5.92 5.92 0 0 0-5.83-6l-23.41-0.35z" fill="#d4237a" p-id="4373"></path><path d="M799.403958 209.633589l13.048495 0.198148-0.049954 3.289621-13.048496-0.198149 0.049955-3.28962Z" fill="#d4237a" p-id="4374"></path><path d="M799.26837 218.560433l13.048496 0.198149-0.049955 3.28962-13.048495-0.198148 0.049954-3.289621Z" fill="#d4237a" p-id="4375"></path><path d="M799.132805 227.497437l13.048496 0.198148-0.049955 3.289621-13.048496-0.198148 0.049955-3.289621Z" fill="#d4237a" p-id="4376"></path><path d="M656.052407 312.944786l180.959136 2.747961-0.057546 3.789563-180.959137-2.747961 0.057547-3.789563Z" fill="#d4237a" p-id="4377"></path><path d="M241 402a4.35 4.35 0 0 1 1.61 0.29L270 412.71a4.38 4.38 0 0 1 2.53 5.64l-40.59 106.48a4.37 4.37 0 0 1-5.64 2.53l-27.41-10.45a4.37 4.37 0 0 1-2.53-5.64l40.59-106.48a4.35 4.35 0 0 1 4-2.82m0-2.12a6.49 6.49 0 0 0-6 4.18l-40.57 106.48a6.49 6.49 0 0 0 3.75 8.37l27.41 10.45a6.48 6.48 0 0 0 8.37-3.75l40.59-106.47a6.49 6.49 0 0 0-3.75-8.37l-27.41-10.45a6.47 6.47 0 0 0-2.39-0.43z" fill="#d4237a" p-id="4378"></path><path d="M238.031592 423.174504l21.079864 8.036973-1.172059 3.074146-21.079864-8.036973 1.172059-3.074146Z" fill="#d4237a" p-id="4379"></path><path d="M234.84547 431.523744l21.079864 8.036973-1.172059 3.074147-21.079864-8.036973 1.172059-3.074147Z" fill="#d4237a" p-id="4380"></path><path d="M231.673213 439.863697l21.079864 8.036973-1.172058 3.074147-21.079864-8.036973 1.172058-3.074147Z" fill="#d4237a" p-id="4381"></path><path d="M282.12 405.76h0.11l23.41 0.35a3.81 3.81 0 0 1 3.75 3.86L307.65 525a3.79 3.79 0 0 1-3.76 3.75h-0.11l-23.41-0.35a3.81 3.81 0 0 1-3.75-3.86l1.74-115.07a3.79 3.79 0 0 1 3.76-3.75m0-2.12a5.92 5.92 0 0 0-5.85 5.83l-1.74 115.07a5.92 5.92 0 0 0 5.83 6l23.41 0.35h0.17a5.92 5.92 0 0 0 5.85-5.83L311.5 410a5.92 5.92 0 0 0-5.83-6l-23.41-0.35z" fill="#d4237a" p-id="4382"></path><path d="M287.09621 425.420054l13.048496 0.198149-0.049955 3.28962-13.048496-0.198148 0.049955-3.289621Z" fill="#d4237a" p-id="4383"></path><path d="M286.950479 434.356898l13.048496 0.198148-0.049955 3.289621-13.048496-0.198148 0.049955-3.289621Z" fill="#d4237a" p-id="4384"></path><path d="M286.824905 443.283895l13.048496 0.198148-0.049955 3.289621-13.048495-0.198149 0.049954-3.28962Z" fill="#d4237a" p-id="4385"></path><path d="M317.38 406.29h0.11l23.41 0.35a3.81 3.81 0 0 1 3.75 3.86l-1.75 115.08a3.79 3.79 0 0 1-3.76 3.75H339l-23.37-0.33a3.81 3.81 0 0 1-3.75-3.86L313.62 410a3.79 3.79 0 0 1 3.76-3.75m0-2.12a5.92 5.92 0 0 0-5.88 5.87l-1.74 115.07a5.92 5.92 0 0 0 5.83 6l23.41 0.35h0.17a5.92 5.92 0 0 0 5.85-5.83l1.74-115.07a5.92 5.92 0 0 0-5.83-6l-23.41-0.35z" fill="#d4237a" p-id="4386"></path><path d="M322.343939 425.955224l13.048495 0.198148-0.049954 3.289621-13.048496-0.198149 0.049955-3.28962Z" fill="#d4237a" p-id="4387"></path><path d="M322.208374 434.892227l13.048495 0.198148-0.049955 3.289621-13.048495-0.198148 0.049955-3.289621Z" fill="#d4237a" p-id="4388"></path><path d="M322.072786 443.819072l13.048495 0.198148-0.049954 3.289621-13.048496-0.198149 0.049955-3.28962Z" fill="#d4237a" p-id="4389"></path><path d="M179.002402 529.266573l180.959136 2.74796-0.057546 3.789564-180.959137-2.747961 0.057547-3.789563Z" fill="#d4237a" p-id="4390"></path><path d="M477.83 404.66a4.35 4.35 0 0 1 1.61 0.29l27.41 10.45a4.38 4.38 0 0 1 2.53 5.64l-40.6 106.47a4.37 4.37 0 0 1-5.64 2.53l-27.41-10.45a4.37 4.37 0 0 1-2.53-5.64l40.59-106.48a4.35 4.35 0 0 1 4-2.82m0-2.12a6.49 6.49 0 0 0-6 4.18L431.22 513.2a6.49 6.49 0 0 0 3.75 8.37L462.38 532a6.48 6.48 0 0 0 8.37-3.75l40.59-106.48a6.49 6.49 0 0 0-3.75-8.37l-27.4-10.4a6.47 6.47 0 0 0-2.39-0.43z" fill="#d4237a" p-id="4391"></path><path d="M474.874017 425.875632l21.079864 8.036973-1.172058 3.074147-21.079864-8.036973 1.172058-3.074147Z" fill="#d4237a" p-id="4392"></path><path d="M471.691458 434.215529l21.079864 8.036973-1.172059 3.074147-21.079864-8.036973 1.172059-3.074147Z" fill="#d4237a" p-id="4393"></path><path d="M468.506295 442.561263l21.079864 8.036973-1.172059 3.074147-21.079864-8.036973 1.172059-3.074147Z" fill="#d4237a" p-id="4394"></path><path d="M519 408.44h0.11l23.41 0.35a3.81 3.81 0 0 1 3.75 3.86l-1.74 115.07a3.79 3.79 0 0 1-3.76 3.75h-0.11l-23.41-0.35a3.81 3.81 0 0 1-3.75-3.86l1.74-115.07a3.79 3.79 0 0 1 3.76-3.75m0-2.12a5.92 5.92 0 0 0-5.85 5.83l-1.74 115.07a5.92 5.92 0 0 0 5.83 6l23.41 0.35h0.17a5.92 5.92 0 0 0 5.85-5.83l1.74-115.07a5.92 5.92 0 0 0-5.83-6l-23.41-0.35z" fill="#d4237a" p-id="4395"></path><path d="M523.928057 428.115884l13.048496 0.198148-0.049955 3.289621-13.048495-0.198148 0.049954-3.289621Z" fill="#d4237a" p-id="4396"></path><path d="M523.802484 437.052872l13.048495 0.198149-0.049954 3.28962-13.048496-0.198148 0.049955-3.289621Z" fill="#d4237a" p-id="4397"></path><path d="M523.666911 445.979717l13.048496 0.198148-0.049955 3.289621-13.048495-0.198148 0.049954-3.289621Z" fill="#d4237a" p-id="4398"></path><path d="M554.22 409h0.11l23.41 0.35a3.81 3.81 0 0 1 3.75 3.86l-1.74 115.07A3.79 3.79 0 0 1 576 532h-0.11l-23.41-0.35a3.81 3.81 0 0 1-3.75-3.86l1.74-115.07a3.79 3.79 0 0 1 3.76-3.75m0-2.12a5.92 5.92 0 0 0-5.85 5.83l-1.74 115.07a5.92 5.92 0 0 0 5.83 6l23.41 0.35h0.12a5.92 5.92 0 0 0 5.85-5.83l1.74-115.07a5.92 5.92 0 0 0-5.83-6l-23.41-0.35z" fill="#d4237a" p-id="4399"></path><path d="M559.195943 428.651198l13.048496 0.198148-0.049955 3.289621-13.048495-0.198148 0.049954-3.289621Z" fill="#d4237a" p-id="4400"></path><path d="M559.050364 437.578027l13.048496 0.198149-0.049955 3.289621-13.048495-0.198149 0.049954-3.289621Z" fill="#d4237a" p-id="4401"></path><path d="M558.92479 446.515046l13.048496 0.198148-0.049955 3.289621-13.048495-0.198148 0.049954-3.289621Z" fill="#d4237a" p-id="4402"></path><path d="M415.844407 531.962395l180.959137 2.747961-0.057547 3.789563-180.959136-2.747961 0.057546-3.789563Z" fill="#d4237a" p-id="4403"></path><path d="M714.67 407.3a4.35 4.35 0 0 1 1.61 0.29L743.69 418a4.38 4.38 0 0 1 2.53 5.64l-40.59 106.52a4.37 4.37 0 0 1-5.64 2.53l-27.41-10.45a4.38 4.38 0 0 1-2.58-5.64l40.59-106.48a4.35 4.35 0 0 1 4-2.82m0-2.12a6.49 6.49 0 0 0-6 4.18l-40.52 106.48a6.49 6.49 0 0 0 3.75 8.37l27.41 10.45a6.48 6.48 0 0 0 8.37-3.75l40.59-106.48a6.49 6.49 0 0 0-3.75-8.37L717 405.61a6.47 6.47 0 0 0-2.39-0.43z" fill="#d4237a" p-id="4404"></path><path d="M711.714608 428.526422l21.079864 8.036973-1.172058 3.074147-21.079864-8.036973 1.172058-3.074147Z" fill="#d4237a" p-id="4405"></path><path d="M708.528486 436.875663l21.079864 8.036973-1.172058 3.074147-21.079864-8.036973 1.172058-3.074147Z" fill="#d4237a" p-id="4406"></path><path d="M705.35623 445.215616l21.079864 8.036973-1.172059 3.074147-21.079864-8.036973 1.172059-3.074147Z" fill="#d4237a" p-id="4407"></path><path d="M755.81 411.09h0.11l23.41 0.35a3.81 3.81 0 0 1 3.75 3.86l-1.74 115.07a3.79 3.79 0 0 1-3.76 3.75h-0.11l-23.41-0.35a3.81 3.81 0 0 1-3.75-3.86l1.74-115.07a3.79 3.79 0 0 1 3.76-3.75m0-2.12a5.92 5.92 0 0 0-5.85 5.83l-1.76 115.08a5.92 5.92 0 0 0 5.83 6l23.41 0.35h0.17a5.92 5.92 0 0 0 5.85-5.83l1.74-115.07a5.92 5.92 0 0 0-5.83-6l-23.42-0.33z" fill="#d4237a" p-id="4408"></path><path d="M760.780669 430.771848l13.048496 0.198148-0.049955 3.289621-13.048495-0.198148 0.049954-3.289621Z" fill="#d4237a" p-id="4409"></path><path d="M760.644945 439.708692l13.048496 0.198148-0.049955 3.289621-13.048496-0.198149 0.049955-3.28962Z" fill="#d4237a" p-id="4410"></path><path d="M760.509365 448.635688l13.048495 0.198148-0.049954 3.289621-13.048496-0.198148 0.049955-3.289621Z" fill="#d4237a" p-id="4411"></path><path d="M791.06 411.62h0.11l23.41 0.35a3.81 3.81 0 0 1 3.75 3.86l-1.74 115.07a3.79 3.79 0 0 1-3.76 3.75h-0.11l-23.41-0.35a3.81 3.81 0 0 1-3.75-3.86l1.74-115.07a3.79 3.79 0 0 1 3.76-3.75m0-2.12a5.92 5.92 0 0 0-5.85 5.83l-1.74 115.07a5.92 5.92 0 0 0 5.83 6l23.41 0.35h0.17a5.92 5.92 0 0 0 5.85-5.83l1.74-115.07a5.92 5.92 0 0 0-5.83-6l-23.41-0.35z" fill="#d4237a" p-id="4412"></path><path d="M796.028413 431.317024l13.048496 0.198148-0.049955 3.289621-13.048496-0.198148 0.049955-3.289621Z" fill="#d4237a" p-id="4413"></path><path d="M795.902824 440.24402l13.048496 0.198149-0.049955 3.289621-13.048495-0.198149 0.049954-3.289621Z" fill="#d4237a" p-id="4414"></path><path d="M795.75726 449.170865l13.048496 0.198149-0.049955 3.28962-13.048495-0.198148 0.049954-3.289621Z" fill="#d4237a" p-id="4415"></path><path d="M652.686861 534.628358l180.959136 2.74796-0.057546 3.789564-180.959137-2.747961 0.057547-3.789563Z" fill="#d4237a" p-id="4416"></path></svg>